<svg width="500" height="333" viewBox="0 0 500 333" font-family="Verdana, Sans" xmlns="http://www.w3.org/2000/svg">
<rect xmlns="http://www.w3.org/2000/svg" width="500" height="333" fill="#16a34a"/>
    <g transform="translate(20, 27) scale(1.15)">
        <path fill="white" d="M63.1218 27.7353V76.2086H42.8441V61.9337C42.8441 55.6618 37.7624 50.5771 31.5185 50.5771C25.2747 50.5771 20.193 55.6618 20.193 61.9337V76.2086H0V27.7353H11.818V34.7392C11.818 37.7366 14.2505 40.1603 17.2345 40.1603C20.2186 40.1603 22.6511 37.7366 22.6511 34.7392V27.7353H40.3781V34.7095C40.3781 37.7069 42.8106 40.1306 45.7947 40.1306C48.7787 40.1306 51.2112 37.7069 51.2112 34.7095V27.7353H63.1218Z"/>
        <path d="M28.7643 2.18495V32.263H34.0339V18.7778C34.0339 18.7778 35.3804 16.0081 40.2893 17.2299C46.7851 18.8468 54.7881 17.7511 59.9257 8.45259C44.3573 13.5802 43.9403 -4.04034 28.7643 2.18495Z" fill="white"/>
    </g>
    <text fill="white" x="97" y="115" font-size="77">BuidlGuidl</text>
    <rect fill="white" x="0" y="150" width="500" height="60"/>
    <!-- <text x="250" y="195" font-size="45" text-anchor="middle" fill="#16a34a">matthu.eth</text> -->
    <text fill="#16a34a" x="250" y="188" font-size="18" text-anchor="middle">0x41f727fA294E50400aC27317832A9F78659476B9</text>
    <circle fill="white" cx="440" cy="275" r="38" />
    <text  x="440" y="275" font-size="40" font-weight="bold" text-anchor="middle" dominant-baseline="central" fill="#16a34a">8</text>
    <text fill="white" x="25" y="290" font-size="43" font-weight="bold">Builds Shipped</text>
</svg>
